<svg viewBox="0 0 25 25" xmlns="http://www.w3.org/2000/svg"><g fill="none" stroke="#000" stroke-miterlimit="10"><circle cx="12.5" cy="12.5" r="12"/><path d="m6.78 11.83 3.51 5.94"/><path d="m10.29 17.77 6.5-1.45"/><path d="m16.79 16.32.81-6.78"/><path d="m17.6 9.54-6.07-2.66"/><path d="m11.53 6.88-4.75 4.95"/><path d="m6.78 11.83-3.37-.44"/><path d="m3.41 11.39-1.71-4.13"/><path d="m3.41 11.39-2.66 3.54"/><path d="m10.29 17.77-1.45 2.97"/><path d="m8.84 20.74-4.71.35"/><path d="m8.84 20.74 2.49 3.76"/><path d="m16.79 16.32 2.5 2.26"/><path d="m19.29 18.58-1.11 4.49"/><path d="m19.29 18.58 4.4-1.73"/><path d="m17.6 9.54 2.87-1.82"/><path d="m20.47 7.72-.19-4.35"/><path d="m20.47 7.72 3.77 2.27"/><path d="m11.53 6.88-.84-3.58"/><path d="m10.69 3.3 3.27-2.8"/><path d="m10.69 3.3-4.21-1.18"/></g></svg>