<?xml version="1.0" encoding="UTF-8"?><svg id="uuid-96ba1681-2ef7-4a64-a46f-2e0e65cd556a" xmlns="http://www.w3.org/2000/svg" viewBox="0 0 25 25"><g id="uuid-a047a6ed-6c21-4621-81af-c8612e57271c"><circle cx="12.5" cy="12.5" r="12" fill="none" stroke="#000" stroke-miterlimit="10"/><line x1="6.78" y1="11.83" x2="10.29" y2="17.77" fill="none" stroke="#000" stroke-miterlimit="10"/><line x1="10.29" y1="17.77" x2="16.79" y2="16.32" fill="none" stroke="#000" stroke-miterlimit="10"/><line x1="16.79" y1="16.32" x2="17.6" y2="9.54" fill="none" stroke="#000" stroke-miterlimit="10"/><line x1="17.6" y1="9.54" x2="11.53" y2="6.88" fill="none" stroke="#000" stroke-miterlimit="10"/><line x1="11.53" y1="6.88" x2="6.78" y2="11.83" fill="none" stroke="#000" stroke-miterlimit="10"/><line x1="6.78" y1="11.83" x2="3.41" y2="11.39" fill="none" stroke="#000" stroke-miterlimit="10"/><line x1="3.41" y1="11.39" x2="1.7" y2="7.26" fill="none" stroke="#000" stroke-miterlimit="10"/><line x1="3.41" y1="11.39" x2=".75" y2="14.93" fill="none" stroke="#000" stroke-miterlimit="10"/><line x1="10.29" y1="17.77" x2="8.84" y2="20.74" fill="none" stroke="#000" stroke-miterlimit="10"/><line x1="8.84" y1="20.74" x2="4.13" y2="21.09" fill="none" stroke="#000" stroke-miterlimit="10"/><line x1="8.84" y1="20.74" x2="11.33" y2="24.5" fill="none" stroke="#000" stroke-miterlimit="10"/><line x1="16.79" y1="16.32" x2="19.29" y2="18.58" fill="none" stroke="#000" stroke-miterlimit="10"/><line x1="19.29" y1="18.58" x2="18.18" y2="23.07" fill="none" stroke="#000" stroke-miterlimit="10"/><line x1="19.29" y1="18.58" x2="23.69" y2="16.85" fill="none" stroke="#000" stroke-miterlimit="10"/><line x1="17.6" y1="9.54" x2="20.47" y2="7.72" fill="none" stroke="#000" stroke-miterlimit="10"/><line x1="20.47" y1="7.72" x2="20.28" y2="3.37" fill="none" stroke="#000" stroke-miterlimit="10"/><line x1="20.47" y1="7.72" x2="24.24" y2="9.99" fill="none" stroke="#000" stroke-miterlimit="10"/><line x1="11.53" y1="6.88" x2="10.69" y2="3.3" fill="none" stroke="#000" stroke-miterlimit="10"/><line x1="10.69" y1="3.3" x2="13.96" y2=".5" fill="none" stroke="#000" stroke-miterlimit="10"/><line x1="10.69" y1="3.3" x2="6.48" y2="2.12" fill="none" stroke="#000" stroke-miterlimit="10"/></g></svg>