<svg width="24" height="24" viewBox="0 0 24 24" fill="none" xmlns="http://www.w3.org/2000/svg">
<g id="icon_football_24px 1" clip-path="url(#clip0_321_123)">
<g id="uuid-a047a6ed-6c21-4621-81af-c8612e57271c">
<path id="Vector" d="M12 23.52C18.3623 23.52 23.52 18.3623 23.52 12C23.52 5.63768 18.3623 0.48 12 0.48C5.63766 0.48 0.47998 5.63768 0.47998 12C0.47998 18.3623 5.63766 23.52 12 23.52Z" stroke="white" stroke-miterlimit="10"/>
<path id="Vector_2" d="M6.50879 11.3568L9.87839 17.0592" stroke="white" stroke-miterlimit="10"/>
<path id="Vector_3" d="M9.87842 17.0592L16.1184 15.6672" stroke="white" stroke-miterlimit="10"/>
<path id="Vector_4" d="M16.1182 15.6672L16.8958 9.1584" stroke="white" stroke-miterlimit="10"/>
<path id="Vector_5" d="M16.896 9.1584L11.0688 6.6048" stroke="white" stroke-miterlimit="10"/>
<path id="Vector_6" d="M11.0688 6.6048L6.50879 11.3568" stroke="white" stroke-miterlimit="10"/>
<path id="Vector_7" d="M6.50864 11.3568L3.27344 10.9344" stroke="white" stroke-miterlimit="10"/>
<path id="Vector_8" d="M3.27344 10.9344L1.63184 6.9696" stroke="white" stroke-miterlimit="10"/>
<path id="Vector_9" d="M3.27381 10.9344L0.720215 14.3328" stroke="white" stroke-miterlimit="10"/>
<path id="Vector_10" d="M9.87833 17.0592L8.48633 19.9104" stroke="white" stroke-miterlimit="10"/>
<path id="Vector_11" d="M8.48644 19.9104L3.96484 20.2464" stroke="white" stroke-miterlimit="10"/>
<path id="Vector_12" d="M8.48633 19.9104L10.8767 23.52" stroke="white" stroke-miterlimit="10"/>
<path id="Vector_13" d="M16.1182 15.6672L18.5182 17.8368" stroke="white" stroke-miterlimit="10"/>
<path id="Vector_14" d="M18.5182 17.8368L17.4526 22.1472" stroke="white" stroke-miterlimit="10"/>
<path id="Vector_15" d="M18.5186 17.8368L22.7426 16.176" stroke="white" stroke-miterlimit="10"/>
<path id="Vector_16" d="M16.896 9.1584L19.6512 7.4112" stroke="white" stroke-miterlimit="10"/>
<path id="Vector_17" d="M19.6511 7.4112L19.4688 3.2352" stroke="white" stroke-miterlimit="10"/>
<path id="Vector_18" d="M19.6514 7.4112L23.2706 9.5904" stroke="white" stroke-miterlimit="10"/>
<path id="Vector_19" d="M11.0686 6.6048L10.2622 3.168" stroke="white" stroke-miterlimit="10"/>
<path id="Vector_20" d="M10.2622 3.168L13.4014 0.48" stroke="white" stroke-miterlimit="10"/>
<path id="Vector_21" d="M10.2623 3.168L6.2207 2.0352" stroke="white" stroke-miterlimit="10"/>
</g>
</g>
<defs>
<clipPath id="clip0_321_123">
<rect width="24" height="24" fill="white"/>
</clipPath>
</defs>
</svg>
