<svg width="16" height="16" viewBox="0 0 16 16" fill="none" xmlns="http://www.w3.org/2000/svg">
<g clip-path="url(#clip0_393_267)">
<path d="M7.99982 15.68C12.2414 15.68 15.6798 12.2416 15.6798 8.00001C15.6798 3.75846 12.2414 0.320007 7.99982 0.320007C3.75828 0.320007 0.319824 3.75846 0.319824 8.00001C0.319824 12.2416 3.75828 15.68 7.99982 15.68Z" stroke="white" stroke-miterlimit="10"/>
<path d="M4.33887 7.57121L6.58527 11.3728" stroke="white" stroke-miterlimit="10"/>
<path d="M6.58545 11.3728L10.7454 10.4448" stroke="white" stroke-miterlimit="10"/>
<path d="M10.7456 10.4448L11.264 6.10561" stroke="white" stroke-miterlimit="10"/>
<path d="M11.2637 6.10561L7.37891 4.40321" stroke="white" stroke-miterlimit="10"/>
<path d="M7.37887 4.40321L4.33887 7.57121" stroke="white" stroke-miterlimit="10"/>
<path d="M4.33893 7.57121L2.18213 7.28961" stroke="white" stroke-miterlimit="10"/>
<path d="M2.18229 7.28961L1.08789 4.64641" stroke="white" stroke-miterlimit="10"/>
<path d="M2.18238 7.28961L0.47998 9.55521" stroke="white" stroke-miterlimit="10"/>
<path d="M6.58523 11.3728L5.65723 13.2736" stroke="white" stroke-miterlimit="10"/>
<path d="M5.65747 13.2736L2.64307 13.4976" stroke="white" stroke-miterlimit="10"/>
<path d="M5.65723 13.2736L7.25083 15.68" stroke="white" stroke-miterlimit="10"/>
<path d="M10.7456 10.4448L12.3456 11.8912" stroke="white" stroke-miterlimit="10"/>
<path d="M12.3457 11.8912L11.6353 14.7648" stroke="white" stroke-miterlimit="10"/>
<path d="M12.3452 11.8912L15.1612 10.784" stroke="white" stroke-miterlimit="10"/>
<path d="M11.2637 6.10561L13.1005 4.94081" stroke="white" stroke-miterlimit="10"/>
<path d="M13.1006 4.94081L12.979 2.15681" stroke="white" stroke-miterlimit="10"/>
<path d="M13.1006 4.94081L15.5134 6.39361" stroke="white" stroke-miterlimit="10"/>
<path d="M7.37891 4.40322L6.84131 2.11201" stroke="white" stroke-miterlimit="10"/>
<path d="M6.84131 2.11201L8.93411 0.320007" stroke="white" stroke-miterlimit="10"/>
<path d="M6.84137 2.11201L4.14697 1.35681" stroke="white" stroke-miterlimit="10"/>
</g>
<defs>
<clipPath id="clip0_393_267">
<rect width="16" height="16" fill="white"/>
</clipPath>
</defs>
</svg>
