<?xml version="1.0" encoding="UTF-8"?><svg id="uuid-036a0479-89d8-4645-a78a-21e0abfab895" xmlns="http://www.w3.org/2000/svg" viewBox="0 0 556.34 93.59"><g id="uuid-785ea7e9-9e82-44db-aa03-daba153e7be9"><path d="m0,71.52V21.64c0-3.04,1.63-4.67,4.67-4.67h5.9c3.04,0,4.67,1.63,4.67,4.67v46.82c0,3.62,1.54,5.12,5.36,5.12h19.22c2.94,0,4.63,1.59,4.81,4.53l.14,2.5c.18,3.01-1.31,5.34-4.25,5.35H15.79c-11.1,0-15.79-5.97-15.79-14.45Z" fill="#f9d230" stroke-width="0"/><path d="m62.86,81.3V21.64c0-3.04,1.63-4.67,4.67-4.67h5.82c3.04,0,4.67,1.63,4.67,4.67v59.66c0,3.04-1.63,4.67-4.67,4.67h-5.82c-3.04,0-4.67-1.63-4.67-4.67Z" fill="#f9d230" stroke-width="0"/><path d="m105.08,85.97c-3.04,0-4.67-1.63-4.67-4.67V30.92c0-8.7,6.07-13.96,15.24-13.96h26.45c2.95.12,4.44,2.16,4.25,5.17l-.14,2.29c-.18,3.01-1.93,4.53-4.87,4.53h-20.24c-3.86,0-5.4,1.5-5.4,5.12v10.06c0,1.12.58,1.7,1.7,1.7h20.1c3.04,0,4.67,1.63,4.67,4.67v1.77c0,3.04-1.63,4.67-4.67,4.67h-20.1c-1.12,0-1.7.58-1.7,1.69v22.65c0,3.04-1.63,4.67-4.67,4.67h-5.96Z" fill="#f9d230" stroke-width="0"/><path d="m164.27,72.38V30.56c.06-8.28,6.03-13.59,15.17-13.59h27.53c2.95,0,4.43,2.13,4.26,5.35l-.14,2.11c-.18,2.94-1.87,4.53-4.81,4.53h-21.99c-3.29,0-4.71,1.5-4.71,5.12v8.78c0,1.12.58,1.69,1.7,1.69h21.14c3.04,0,4.67,1.63,4.67,4.67v1.71c0,3.04-1.63,4.67-4.67,4.67h-21.14c-1.12,0-1.7.58-1.7,1.7v11.6c0,3.62,1.42,5.12,4.71,5.12h21.99c2.94,0,4.63,1.59,4.81,4.53l.14,2.05c.18,3.22-1.31,5.34-4.26,5.35h-27.53c-9.2,0-15.1-5.32-15.17-13.59Z" fill="#f9d230" stroke-width="0"/><path d="m341.06,85.97c-3.42,0-4.91-2.01-3.92-5.29l17.58-57.5c1.27-4.17,3.98-6.22,8.41-6.22h9.59c4.43,0,7.14,2.05,8.41,6.22l17.64,57.5c1,3.28-.5,5.29-3.92,5.29h-5.9c-2.8,0-4.49-1.29-5.21-3.99l-3.59-12.68c-.24-.98-.88-1.46-1.83-1.46h-20.74c-.96,0-1.59.48-1.83,1.46l-3.59,12.68c-.72,2.7-2.41,3.99-5.21,3.99h-5.9Zm33.64-29.92c1.22,0,1.76-.74,1.46-1.9l-5.4-19.18c-.4-1.6-.86-3.33-1.18-4.96-.2-1.06-.7-1.53-1.56-1.53h-.1c-.86,0-1.4.52-1.62,1.53-.36,1.63-.72,3.31-1.12,4.96l-5.4,19.18c-.3,1.16.24,1.9,1.46,1.9h13.48Z" fill="#f9d230" stroke-width="0"/><path d="m413.27,51.47c0-26.3,7.73-35.7,29.05-35.7,7.42,0,11.88.4,16.44,1.3,2.84.62,4.12,2.49,3.78,5.39l-.28,2.5c-.34,2.94-2.09,4.43-5.03,4.27-4.32-.22-8.34-.28-14.9-.28-10.03,0-13.01,5.11-13.01,22.52s2.98,22.52,13.01,22.52c6.86,0,11.7-.06,16.26-.48,2.98-.2,4.77,1.15,5.11,4.19l.28,2.4c.34,2.8-.83,4.71-3.64,5.37-4.98,1.2-10.24,1.7-18.01,1.7-21.32,0-29.05-9.4-29.05-35.7Z" fill="#f9d230" stroke-width="0"/><path d="m257.88,93.24c-.86,0-1.69-.37-2.27-1.04-.74-.86-.93-2.05-.5-3.1l26.1-63.45c1.18-2.86,2.82-5.46,4.87-7.72,7.86-8.67,20.27-11.13,30.88-6.14,11.69,5.5,17.75,18.98,14.09,31.34h0c-3.92,13.23-17.5,21.33-30.93,18.45l-.12-.02c-1.59-.25-3.17.64-3.78,2.14l-8.68,21.1c-.36.88-1.13,1.54-2.06,1.77l-26.9,6.59c-.24.06-.48.09-.72.09Zm47.74-80c-6.17,0-12.2,2.56-16.57,7.38-1.75,1.92-3.14,4.12-4.14,6.55l-25.35,61.63,24.49-6,8.48-20.63c1.35-3.27,4.85-5.18,8.33-4.53l.26.06c11.34,2.35,22.79-4.52,26.1-15.7,3.1-10.48-2.04-21.91-11.96-26.58-3.11-1.46-6.39-2.17-9.64-2.17Z" fill="#f9d230" stroke-width="0"/><path d="m255.58,93.59c-.13,0-.25,0-.38-.02l-25.46-3.29c-.93-.12-1.74-.66-2.21-1.47-.47-.81-.54-1.78-.18-2.65,3.05-7.39,19.3-46.79,24.94-60.51,6.67-16.21,21.94-16.4,22.59-16.4h28.98l.02,4c-.54,0-13.33.38-18.91,13.92l-26.62,64.56c-.47,1.13-1.57,1.86-2.77,1.86Zm-24.04-7.12l23.41,3.03,26.32-63.85c2.54-6.15,6.35-10,10.13-12.4h-16.51c-.57,0-13.27.26-18.9,13.92-5.39,13.09-20.43,49.57-24.45,59.3Z" fill="#f9d230" stroke-width="0"/><text transform="translate(490.94 50.7)" fill="#f9d230" font-family="ExoSoft-Bold, &apos;Exo Soft&apos;" font-size="60" font-weight="700" letter-spacing=".11em"><tspan x="0" y="0">™</tspan></text></g></svg>