<svg fill="none" height="139" viewBox="0 0 328 139" width="328" xmlns="http://www.w3.org/2000/svg" xmlns:xlink="http://www.w3.org/1999/xlink"><clipPath id="a"><path d="m.799805.88501h327v138h-327z"/></clipPath><g clip-path="url(#a)" fill="#f8f8ff" stroke="#f8f8ff" stroke-width=".22"><path clip-rule="evenodd" d="m29.6867 27.215c15.5456-8.6106 31.4901-9.7246 46.1921-5.7076.6343-5.0328.9875-9.4233 3.7735-15.47827-3.6951 2.69329-6.0625 5.74047-8.7766 9.03007l-.9091-14.03002-11.7916 13.13222-8.0769-13.204308-4.9639 14.763908-14.4338-10.20956 2.4264 14.20036c-3.3158-2.7588-7.0109-5.5111-10.7191-7.0445 2.8515 3.7615 5.6244 8.958 7.2725 14.5477z" fill-rule="evenodd" stroke-linejoin="round"/><path clip-rule="evenodd" d="m89.8352 33.1652c-4.1137-3.4207-8.2469-6.4088-17.3245-8.65.8241 1.8021 1.5042 4.0825 1.4912 6.4613-2.3414-2.5033-5.1863-5.6028-8.659-7.4508-11.4712-1.5072-23.2628 1.3761-32.5038 6.0419 3.9175.4587 7.0043 3.5124 8.0442 6.8807-11.0657-7.7326-17.416 3.4141-11.0134 14.5215-6.8866-3.2897-7.207-11.304-5.1077-16.5726-5.1666 3.9318-13.0669 11.5136-17.99154 21.7822l6.31764.8912c-7.62564 9.0104-11.47116 21.9723-12.216718 29.5934l10.280918-3.3354c-3.25696 11.8085-.6475 30.1964 3.5054 36.9064 6.4157-5.059 11.5627-11.389 16.8863-19.416 3.3746 10.681 2.7664 21.801.1439 33.132 14.9962 8.505 33.6548 5.059 45.8846-4.181.5232 2.188.8764 3.211 1.8966 7.968 14.8393-10.301 19.8751-22.903 21.3137-35.117l4.827 5.347c6.461-20.9108 2.616-37.9028-8.8686-54.3639l-.4774 3.84c-1.3341-1.6775-3.5185-3.7155-4.5387-4.9934-.157-.2031-.1178-.3145-.2224-.4783.5428-.3342 1.55-.8061 1.8116-1.5203-.1112-.9961-1.2622-3.5714-2.119-4.0498-2.1255.1966-3.8324 2.0642-3.8455 2.7457-1.1053-1.0485-2.1517-2.2018-5.3693-3.3945 1.4453 1.4679 2.8318 3.7156 3.8586 5.7143 2.1189 1.5596 5.6701 4.5478 8.3123 7.2673l-.5101.5177c-2.9038-2.2805-10.6733-2.0839-14.9505.0786-2.0797-2.4967-4.4929-5.2752-7.8676-8.3354-.824-1.4089-.896-3.9253 1.72-6.1009-2.8906.2556-4.094 1.5072-5.4543 2.6671-2.0209-1.5269-4.6696-3.1193-8.9598-4.3381-3.3616.6815-7.4164 2.844-8.9794 4.7313 3.924 2.1035 5.1208 2.7391 7.5013 2.903 3.4924.249 6.5335-.5505 8.7702.8846 2.7729 2.4705 7.9592 7.0838 8.6982 9.1873-4.4865-2.5753-11.203-1.2123-18.6783-1.6055-7.0632-.8453-10.9545-6.0812-11.0264-10.3013l-5.0227-.7929c2.8253-3.8859 6.3961-5.6094 9.0383-6.5399l-2.7534-2.287c4.4145-3.8008 11.2815-6.8545 18.2662-7.4574 4.8462 2.3984 8.9925 5.0262 11.8374 7.3787 1.2884-2.1559 1.4715-4.4953 1.635-6.0287 5.5198 2.5491 11.687 6.9134 16.1996 11.5071-1.8116-3.3028-3.1784-7.1166-3.7801-11.6382zm-21.5755 51.782c-2.1189-4.0695-4.1921-8.6828-6.625-12.5556 4.7023-3.3748 9.156-6.8741 16.7751-8.8269 1.6089 1.3368 3.9829 2.9488 7.3641 4.1808v8.0471c-4.8004 3.2896-9.5942 8.6565-17.5142 9.1611zm15.9642-1.481 5.8075-.0197c.981.924 3.0346 4.0694 3.1784 6.5137-.4578 3.4731-3.1457 9.8558-7.8676 12.2938.1504-2.9557-.1896-6.7827-.7848-8.9124-2.6945 3.0406-7.0828 4.4101-9.3456 4.9147-.9418-2.5098-2.4852-5.2883-3.9829-7.5556 4.0483-.8388 9.1625-3.8139 12.995-7.2345zm11.3338-19.587c3.8259 8.1192 3.0019 15.9042.3139 19.895-1.308-2.9948-3.8193-5.996-5.9448-7.8833l.085-7.8833c2.4198-1.304 4.0679-2.6736 5.5394-4.1284z" fill-rule="evenodd" stroke-linejoin="round"/><path d="m136.027 55.1702v15.1833h-8.698v-46.1201h11.733c7.743.0983 10.268 1.0157 13.616 3.2568 3.368 2.2215 5.736 7.1035 5.736 11.8414 0 10.5634-6.501 15.9238-18.685 15.8451h-3.702zm0-8.2306h4.395c4.859.0393 8.914-1.7955 8.947-7.3394-.066-3.401-2.021-6.6382-8.038-6.992h-5.304z" stroke-miterlimit="1.73"/><path d="m179.538 47.9095c-5.291-1.4679-9.66 1.2582-10.032 6.3499v16.1007h-8.064v-30.2094h7.076l.942 4.5937c2.184-4.0367 5.01-5.5963 10.085-4.6068v7.7784z" stroke-miterlimit="1.73"/><path d="m211.028 57.7849h-22.341c0 3.1847 3.369 6.3761 7.646 6.363 4.807-.1639 6.664-1.9856 8.351-3.6697l4.814 5.0458c-1.897 1.8086-5.513 5.2162-12.472 5.7077-10.392-.1114-16.664-6.9921-16.755-15.6683.255-9.6198 7.207-16.1532 16.101-16.2777 5.69.0393 11.177 3.46 13.472 8.8466 1.321 3.0799 1.596 6.802 1.184 9.6591zm-22.354-5.6094h14.63c-.654-2.9292-3.374-5.9239-7.305-5.8584-3.989.0655-6.886 2.8768-7.325 5.8584z" stroke-linejoin="round"/><g stroke-miterlimit="1.73"><path d="m250.922 70.3273v-17.8963c-.216-3.9383-2.976-5.6355-5.134-5.4848-2.74.1966-4.885 2.287-5.055 5.6487v17.7259h-7.92v-19.1348c-.471-2.8178-3.015-4.3643-5.121-4.1874-2.505.2162-4.676 1.6579-4.898 4.5543v18.7679h-8.09v-30.2815h7.318l.804 3.8532c2.034-3.1455 4.153-4.6461 7.561-4.6789 4.78-.0393 6.873 2.3656 8.829 4.9017 2.498-3.5321 4.702-4.7117 9.43-4.9017 6.913.3408 10.49 5.8912 10.314 12.0707v19.0365h-8.031z"/><path d="m263.315 40.1376h8.326v30.1963h-8.326z"/><path d="m127.192 75.36h9.13v36.704h19.312v8.335h-28.442z"/><path d="m216.986 120.405-.909-3.748c-2.864 3.46-6.246 4.745-10.418 4.568-3.787-.164-7.652-2.124-10.484-5.708-2.387-2.936-3.584-6.501-3.584-10.701 0-4.201 1.962-8.2635 5.383-11.5007 2.675-2.346 6.402-3.7287 10.019-3.7024 3.466.0262 6.422 1.0157 9.006 4.3184l.824-3.8925h7.462v30.3662h-7.292zm-8.633-23.2103c-4.643.308-7.763 3.1393-8.037 8.0863-.007 2.353.765 4.686 2.655 6.284 1.7 1.311 3.702 1.986 5.677 1.888 4.427-.308 7.37-3.735 7.423-7.838.058-4.665-2.806-8.1385-7.718-8.4203z"/><path d="m263.963 90.0912h8.561v14.6398c0 2.011-.196 4.521 1.131 6.238 1.347 1.645 3.087 2.366 4.591 2.412 2.387.078 3.754-.643 4.761-1.475 2.054-1.599 2.283-4.646 2.296-6.972v-14.8428h8.391v17.6148c0 3.899-1.576 7.123-4.382 9.921-2.727 2.418-6.442 3.781-11.085 3.571-4.637-.209-7.567-1.54-10.17-3.964-2.178-2.025-4.094-5.524-4.094-10.236z"/><path d="m267.638 25.5899c1.432 0 2.649.5111 3.649 1.54 1.027 1.0026 1.537 2.2214 1.537 3.6565 0 1.4352-.51 2.6671-1.537 3.6959-1 1.0027-2.217 1.5072-3.649 1.5072s-2.662-.5045-3.688-1.5072c-1.001-1.0288-1.505-2.2607-1.505-3.6959 0-1.4351.504-2.6539 1.505-3.6565 1.026-1.0289 2.256-1.54 3.688-1.54z"/><path d="m327.688 47.9095c-5.29-1.4679-9.659 1.2582-10.032 6.3499v16.1007h-8.064v-30.2094h7.077l.941 4.5937c2.185-4.0367 5.01-5.5963 10.085-4.6068v7.7784z"/></g><path d="m305.78 57.7849h-22.341c0 3.1847 3.368 6.3761 7.645 6.363 4.807-.1639 6.664-1.9856 8.352-3.6697l4.813 5.0458c-1.896 1.8086-5.513 5.2162-12.472 5.7077-10.392-.1114-16.663-6.9921-16.755-15.6683.255-9.6198 7.207-16.1532 16.101-16.2777 5.69.0393 11.177 3.46 13.473 8.8466 1.321 3.0799 1.596 6.802 1.184 9.6591zm-22.354-5.6094h14.63c-.654-2.9292-3.375-5.9239-7.305-5.8584-3.99.0655-6.887 2.8768-7.325 5.8584z" stroke-linejoin="round"/><path d="m233.336 123.485c2.989 2.654 5.31 3.644 7.161 3.945 5.88.97 12.25-1.258 10.889-9.692-1.602 1.652-3.126 2.556-4.767 3.034-7.292 1.442-12.348-1.166-15.677-5.255-2.387-2.936-3.584-6.501-3.584-10.701 0-4.201 1.962-8.2635 5.383-11.5007 2.675-2.346 6.402-3.7287 10.019-3.7024 3.466.0262 6.422 1.0157 9.006 4.3184l.824-3.8925h7.462v28.0272c.32 13.381-9.522 17.497-17.436 17.431-4.892-.046-9.934-2.044-13.917-5.485l4.637-6.52zm10.791-26.2903c-4.643.308-7.763 3.1393-8.038 8.0863-.006 2.353.765 4.686 2.656 6.284 1.7 1.311 3.701 1.986 5.676 1.888 4.428-.308 7.371-3.735 7.423-7.838.059-4.665-2.806-8.1385-7.717-8.4203z" stroke-miterlimit="1.73"/><path d="m327.551 107.817h-22.341c0 3.185 3.369 6.376 7.646 6.363 4.807-.164 6.664-1.985 8.351-3.67l4.814 5.046c-1.897 1.809-5.514 5.216-12.472 5.708-10.392-.111-16.664-6.992-16.756-15.668.256-9.6201 7.208-16.1535 16.102-16.278 5.69.0393 11.177 3.46 13.472 8.8466 1.321 3.0794 1.596 6.8024 1.184 9.6594zm-22.354-5.609h14.63c-.654-2.9294-3.374-5.9242-7.305-5.8586-3.989.0655-6.886 2.8768-7.325 5.8586z" stroke-linejoin="round"/><path d="m188.327 107.817h-22.34c0 3.185 3.368 6.376 7.645 6.363 4.807-.164 6.664-1.985 8.352-3.67l4.813 5.046c-1.897 1.809-5.513 5.216-12.472 5.708-10.392-.111-16.664-6.992-16.755-15.668.255-9.6201 7.207-16.1535 16.101-16.278 5.69.0393 11.177 3.46 13.473 8.8466 1.321 3.0794 1.595 6.8024 1.183 9.6594zm-22.353-5.609h14.63c-.654-2.9294-3.375-5.9242-7.305-5.8586-3.99.0655-6.887 2.8768-7.325 5.8586z" stroke-linejoin="round"/></g></svg>