<?xml version="1.0" encoding="UTF-8"?><svg id="uuid-cd02462a-68b2-437e-bcdc-039c9cb8b8d3" xmlns="http://www.w3.org/2000/svg" viewBox="0 0 155.07 122.99"><g id="uuid-2879d6a1-fb87-47a1-b0d2-fd9dbf890c0c"><path d="m152.86,50.13c-6.52,17.95-25.13,27.67-42.97,23.84-.03-.01-.06-.01-.09-.02-3.85-.72-7.8,1.33-9.35,5.09l-13.57,32.98-44.81,10.98L83.13,23.18c1.7-4.12,4.05-7.79,6.89-10.91C100.59.62,117.87-3.57,133.15,3.35c17.65,7.99,26.32,28.56,19.71,46.78Z" fill="#dda528" stroke-width="0"/><path d="m70.62,0h44.32s-22.26.24-31.72,23.18-41.15,99.81-41.15,99.81L0,117.55S29.36,46.36,38.9,23.18,70.62,0,70.62,0Z" fill="#f9d230" stroke-width="0"/></g></svg>