<svg fill="none" height="24" viewBox="0 0 24 24" width="24" xmlns="http://www.w3.org/2000/svg" xmlns:xlink="http://www.w3.org/1999/xlink"><clipPath id="a"><path d="m0 0h24v24h-24z"/></clipPath><g clip-path="url(#a)" stroke="#fff" stroke-miterlimit="10"><path d="m12 23.52c6.3623 0 11.52-5.1577 11.52-11.52 0-6.36232-5.1577-11.52-11.52-11.52-6.36234 0-11.52002 5.15768-11.52002 11.52 0 6.3623 5.15768 11.52 11.52002 11.52z"/><path d="m6.50879 11.3568 3.3696 5.7024"/><path d="m9.87842 17.0592 6.23998-1.392"/><path d="m16.1182 15.6672.7776-6.5088"/><path d="m16.896 9.1584-5.8272-2.5536"/><path d="m11.0688 6.6048-4.56001 4.752"/><path d="m6.50864 11.3568-3.2352-.4224"/><path d="m3.27344 10.9344-1.6416-3.9648"/><path d="m3.27381 10.9344-2.553595 3.3984"/><path d="m9.87833 17.0592-1.392 2.8512"/><path d="m8.48644 19.9104-4.5216.336"/><path d="m8.48633 19.9104 2.39037 3.6096"/><path d="m16.1182 15.6672 2.4 2.1696"/><path d="m18.5182 17.8368-1.0656 4.3104"/><path d="m18.5186 17.8368 4.224-1.6608"/><path d="m16.896 9.1584 2.7552-1.7472"/><path d="m19.6511 7.4112-.1823-4.176"/><path d="m19.6514 7.4112 3.6192 2.1792"/><path d="m11.0686 6.6048-.8064-3.4368"/><path d="m10.2622 3.168 3.1392-2.688"/><path d="m10.2623 3.168-4.0416-1.1328"/></g></svg>