<svg viewBox="0 0 557.34 94.59" xmlns="http://www.w3.org/2000/svg"><path d="m16.29 85.97c-9.86 0-15.29-4.95-15.29-13.95v-49.88c0-2.77 1.4-4.17 4.17-4.17h5.9c2.77 0 4.17 1.4 4.17 4.17v46.82c0 3.94 1.75 5.62 5.86 5.62h19.22c2.66 0 4.15 1.41 4.31 4.06l.14 2.5c.09 1.58-.3 2.91-1.1 3.77-.66.7-1.55 1.05-2.65 1.05h-24.72z"/><path d="m11.07 18.47c2.5 0 3.67 1.17 3.67 3.67v46.82c0 4.18 2.02 6.12 6.36 6.12h19.22c2.42 0 3.67 1.18 3.81 3.59l.14 2.51c.08 1.44-.26 2.64-.97 3.39-.56.59-1.33.89-2.29.9h-24.72c-12.23 0-14.79-7.31-14.79-13.45v-49.88c0-2.51 1.17-3.67 3.67-3.67zm0-1h-5.9c-3.04 0-4.67 1.63-4.67 4.67v49.89c0 8.48 4.69 14.45 15.79 14.45h24.72c2.95 0 4.43-2.34 4.25-5.35l-.14-2.5c-.18-2.94-1.87-4.53-4.81-4.53h-19.22c-3.82 0-5.36-1.5-5.36-5.12v-46.84c0-3.04-1.63-4.67-4.67-4.67z" fill="#fff"/><path d="m68.03 17.97h5.82c2.3 0 4.17 1.87 4.17 4.17v59.66c0 2.3-1.87 4.17-4.17 4.17h-5.82c-2.3 0-4.17-1.87-4.17-4.17v-59.66c0-2.3 1.87-4.17 4.17-4.17z"/><path d="m73.85 18.47c2.5 0 3.67 1.17 3.67 3.67v59.66c0 2.5-1.17 3.67-3.67 3.67h-5.82c-2.51 0-3.67-1.17-3.67-3.67v-59.66c0-2.51 1.17-3.67 3.67-3.67zm0-1h-5.82c-3.04 0-4.67 1.63-4.67 4.67v59.66c0 3.04 1.63 4.67 4.67 4.67h5.82c3.04 0 4.67-1.63 4.67-4.67v-59.66c0-3.04-1.63-4.67-4.67-4.67z" fill="#fff"/><path d="m105.58 85.97c-2.77 0-4.17-1.4-4.17-4.17v-50.38c0-8.3 5.65-13.46 14.74-13.46h26.45c1.19.05 2.13.44 2.78 1.16.73.8 1.06 2.01.97 3.47l-.14 2.29c-.16 2.7-1.64 4.06-4.37 4.06h-20.24c-4.13 0-5.9 1.68-5.9 5.62v10.06c0 1.4.8 2.2 2.2 2.2h20.1c2.77 0 4.17 1.4 4.17 4.17v1.77c0 2.77-1.4 4.17-4.17 4.17h-20.1c-1.4 0-2.2.8-2.2 2.19v22.65c0 2.77-1.4 4.17-4.17 4.17h-5.96z"/><path d="m142.58 18.46c1.06.05 1.88.38 2.43 1 .63.7.93 1.78.85 3.11l-.14 2.29c-.15 2.42-1.41 3.59-3.87 3.59h-20.24c-4.36 0-6.4 1.95-6.4 6.12v10.06c0 1.66 1.03 2.7 2.7 2.7h20.1c2.5 0 3.67 1.17 3.67 3.67v1.77c0 2.51-1.17 3.67-3.67 3.67h-20.1c-1.66 0-2.7 1.03-2.7 2.69v22.65c0 2.51-1.17 3.67-3.67 3.67h-5.54s-.41 0-.41 0c-2.5 0-3.67-1.17-3.67-3.67v-50.36c0-7.99 5.46-12.96 14.24-12.96h26.43m.02-1h-26.45c-9.17 0-15.24 5.26-15.24 13.96v50.37c0 3.04 1.63 4.67 4.67 4.67s5.96 0 5.96 0c3.04 0 4.67-1.63 4.67-4.67v-22.65c0-1.12.58-1.69 1.7-1.69h20.1c3.04 0 4.67-1.63 4.67-4.67v-1.77c0-3.04-1.63-4.67-4.67-4.67h-20.1c-1.12 0-1.7-.58-1.7-1.7v-10.06c0-3.62 1.54-5.12 5.4-5.12h20.24c2.94 0 4.69-1.53 4.87-4.53l.14-2.29c.18-3-1.31-5.04-4.25-5.17z" fill="#fff"/><path d="m179.93 85.97c-8.85 0-14.61-5.14-14.67-13.1v-41.81c.06-7.95 5.81-13.09 14.67-13.09h27.53c1.15 0 2.05.35 2.7 1.03.79.83 1.15 2.14 1.06 3.79l-.14 2.11c-.16 2.7-1.61 4.07-4.31 4.07h-21.99c-3.6 0-5.21 1.73-5.21 5.62v8.78c0 1.4.8 2.19 2.2 2.19h21.14c2.77 0 4.17 1.4 4.17 4.17v1.71c0 2.77-1.4 4.17-4.17 4.17h-21.14c-1.4 0-2.2.8-2.2 2.2v11.6c0 3.89 1.61 5.62 5.21 5.62h21.99c2.7 0 4.15 1.37 4.31 4.06l.14 2.06c.09 1.64-.28 2.96-1.06 3.79-.64.68-1.55 1.03-2.7 1.03z"/><path d="m207.46 18.47c1 0 1.79.3 2.33.87.69.73 1.01 1.91.93 3.41l-.14 2.12c-.15 2.42-1.39 3.59-3.81 3.59h-21.99c-3.89 0-5.71 1.95-5.71 6.12v8.78c0 1.66 1.03 2.69 2.7 2.69h21.14c2.5 0 3.67 1.17 3.67 3.67v1.71c0 2.51-1.17 3.67-3.67 3.67h-21.14c-1.66 0-2.7 1.03-2.7 2.7v11.6c0 4.18 1.81 6.12 5.71 6.12h21.99c2.42 0 3.67 1.18 3.81 3.6l.14 2.04c.08 1.51-.24 2.69-.93 3.42-.54.58-1.33.87-2.33.87h-27.53c-8.68 0-14.11-4.83-14.17-12.59v-41.79c.06-7.66 5.62-12.6 14.17-12.6zm0-1h-27.53c-9.13 0-15.1 5.32-15.17 13.59v41.82c.06 8.28 5.97 13.59 15.17 13.59h27.53c2.95 0 4.43-2.13 4.26-5.35l-.14-2.05c-.18-2.94-1.87-4.53-4.81-4.53h-21.99c-3.29 0-4.71-1.5-4.71-5.12v-11.6c0-1.12.58-1.7 1.7-1.7h21.14c3.04 0 4.67-1.63 4.67-4.67v-1.71c0-3.04-1.63-4.67-4.67-4.67h-21.14c-1.12 0-1.7-.58-1.7-1.69v-8.78c0-3.62 1.42-5.12 4.71-5.12h21.99c2.94 0 4.63-1.59 4.81-4.53l.14-2.11c.18-3.22-1.31-5.34-4.26-5.35z" fill="#fff"/><path d="m389.47 85.97c-2.57 0-4.07-1.15-4.73-3.62l-3.59-12.69c-.28-1.17-1.11-1.82-2.31-1.82h-20.74c-1.21 0-2.03.65-2.32 1.84l-3.58 12.66c-.66 2.48-2.16 3.63-4.73 3.63h-5.9c-1.51 0-2.63-.42-3.21-1.21-.59-.79-.67-1.98-.23-3.43l17.58-57.5c1.22-4 3.74-5.86 7.93-5.86h9.59c4.19 0 6.71 1.86 7.93 5.86l17.64 57.5c.44 1.45.36 2.64-.23 3.43s-1.7 1.21-3.21 1.21h-5.9zm-21.05-57.5c-.63 0-1.75.25-2.11 1.93l-.18.83c-.3 1.36-.61 2.75-.94 4.12l-5.4 19.17c-.24.93 0 1.51.25 1.83s.74.7 1.69.7h13.48c.95 0 1.44-.38 1.69-.7s.49-.9.25-1.82l-5.4-19.19-.22-.87c-.34-1.34-.69-2.73-.95-4.06-.24-1.28-.93-1.94-2.05-1.94h-.1z"/><path d="m373.23 18.47c3.94 0 6.3 1.75 7.45 5.51l17.64 57.49c.27.9.47 2.16-.15 2.99s-1.87 1.01-2.81 1.01h-5.9c-2.34 0-3.65-1-4.25-3.27l-3.58-12.65c-.34-1.41-1.37-2.22-2.81-2.22h-20.74c-1.44 0-2.46.81-2.8 2.18l-3.59 12.7c-.6 2.25-1.9 3.25-4.24 3.25h-5.9c-.94 0-2.19-.18-2.81-1.01-.62-.84-.42-2.09-.15-2.99l17.58-57.5c1.15-3.76 3.52-5.51 7.45-5.51h9.59m-11.5 39.09h13.48c1.15 0 1.77-.49 2.08-.89.32-.41.63-1.13.34-2.27l-5.39-19.16-.22-.88c-.34-1.34-.69-2.72-.95-4.02-.39-2.04-1.76-2.35-2.54-2.35h-.1c-1.33 0-2.28.85-2.6 2.32l-.18.83c-.3 1.35-.6 2.74-.92 4.07l-5.41 19.2c-.29 1.12.03 1.84.34 2.25.32.41.93.89 2.08.89m11.5-40.09h-9.59c-4.43 0-7.14 2.05-8.41 6.22l-17.58 57.5c-1 3.28.5 5.29 3.92 5.29h5.9c2.8 0 4.49-1.29 5.21-3.99l3.59-12.68c.24-.98.88-1.46 1.83-1.46h20.74c.96 0 1.6.48 1.83 1.46l3.59 12.68c.72 2.7 2.41 3.99 5.21 3.99h5.9c3.42 0 4.91-2.01 3.92-5.29l-17.64-57.5c-1.27-4.17-3.98-6.22-8.41-6.22zm-11.5 39.09c-1.22 0-1.76-.74-1.46-1.9l5.4-19.18c.4-1.66.76-3.33 1.12-4.96.22-1.02.76-1.53 1.62-1.53h.1c.86 0 1.36.48 1.56 1.53.32 1.63.78 3.37 1.18 4.96l5.4 19.18c.3 1.16-.24 1.9-1.46 1.9h-13.48z" fill="#fff"/><path d="m442.82 87.17c-21.08 0-28.55-9.21-28.55-35.2s7.47-35.2 28.55-35.2c7.05 0 11.63.36 16.34 1.29 2.55.55 3.69 2.18 3.38 4.84l-.28 2.51c-.29 2.55-1.68 3.84-4.11 3.84-.13 0-.26 0-.4-.01-4.08-.21-7.99-.28-14.93-.28-10.35 0-13.51 5.38-13.51 23.02s3.16 23.02 13.51 23.02c7.34 0 11.88-.08 16.31-.48.17-.01.34-.02.51-.02 2.45 0 3.77 1.23 4.06 3.77l.28 2.41c.32 2.62-.78 4.24-3.25 4.82-4.97 1.2-10.16 1.69-17.9 1.69z"/><path d="m442.82 17.27c7.02 0 11.57.36 16.22 1.28 2.33.51 3.28 1.87 2.99 4.3l-.28 2.5c-.26 2.29-1.45 3.4-3.62 3.4-.12 0-.24 0-.37-.01-4.09-.21-8-.28-14.95-.28-11.91 0-14.01 7.58-14.01 23.52s2.1 23.52 14.01 23.52c7.36 0 11.91-.08 16.33-.49.17-.01.33-.02.49-.02 2.2 0 3.3 1.03 3.56 3.33l.28 2.41c.29 2.39-.62 3.75-2.88 4.27-4.93 1.19-10.08 1.67-17.78 1.67-20.71 0-28.05-9.08-28.05-34.7s7.34-34.7 28.05-34.7m0-1c-21.32 0-29.05 9.4-29.05 35.7s7.73 35.7 29.05 35.7c7.78 0 13.04-.5 18.01-1.7 2.8-.66 3.98-2.56 3.64-5.37l-.28-2.4c-.32-2.85-1.91-4.21-4.55-4.21-.18 0-.37 0-.56.02-4.56.42-9.4.48-16.26.48-10.03 0-13.01-5.11-13.01-22.52s2.98-22.52 13.01-22.52c6.56 0 10.58.06 14.9.28.14 0 .28.01.42.01 2.69 0 4.29-1.48 4.61-4.28l.28-2.5c.34-2.9-.93-4.77-3.78-5.39-4.56-.9-9.02-1.3-16.44-1.3z" fill="#fff"/><path d="m258.38 93.24c-.73 0-1.41-.32-1.89-.87-.62-.72-.78-1.71-.42-2.58l26.1-63.45c1.15-2.81 2.76-5.35 4.78-7.57 4.92-5.42 11.9-8.53 19.16-8.53 3.86 0 7.61.84 11.14 2.51 11.47 5.4 17.41 18.62 13.83 30.74-3.25 10.99-13.52 18.67-24.97 18.67-1.8 0-3.6-.19-5.37-.57l-.12-.02c-.23-.04-.43-.05-.64-.05-1.61 0-3.1 1-3.72 2.49l-8.68 21.1c-.3.74-.94 1.29-1.72 1.48l-26.9 6.59c-.2.05-.4.07-.6.07zm47.74-80c-6.42 0-12.6 2.75-16.94 7.54-1.78 1.96-3.21 4.21-4.23 6.7l-25.72 62.54 25.69-6.3 8.58-20.86c1.07-2.6 3.68-4.35 6.5-4.35.43 0 .85.04 1.27.12l.25.06c1.52.31 3.06.47 4.59.47 10.13 0 19.21-6.79 22.09-16.52 3.17-10.72-2.09-22.4-12.23-27.18-3.13-1.47-6.44-2.22-9.86-2.22z"/><path d="m306.11 10.74c3.78 0 7.46.83 10.93 2.46 11.25 5.3 17.08 18.26 13.56 30.15-3.19 10.78-13.26 18.31-24.49 18.31-1.76 0-3.53-.19-5.27-.56l-.12-.02h-.03s-.03 0-.03 0c-.23-.04-.46-.05-.69-.05-1.81 0-3.49 1.13-4.18 2.8l-8.68 21.1c-.24.59-.75 1.03-1.37 1.18l-26.9 6.59c-.16.04-.32.06-.48.06-.58 0-1.13-.25-1.51-.7-.49-.57-.62-1.37-.33-2.06l26.1-63.45c1.13-2.75 2.71-5.25 4.69-7.43 4.82-5.32 11.67-8.37 18.79-8.37m-47.72 80.01 1.91-.47 24.49-6 .49-.12.19-.47 8.48-20.63c.99-2.42 3.42-4.04 6.04-4.04.4 0 .79.04 1.15.1l.28.06c1.54.32 3.12.48 4.69.48 10.35 0 19.63-6.94 22.57-16.88 3.24-10.95-2.13-22.89-12.49-27.77-3.19-1.5-6.58-2.27-10.07-2.27-6.56 0-12.87 2.81-17.31 7.71-1.82 2.01-3.28 4.31-4.32 6.84l-25.35 61.63-.75 1.82m47.72-81.01c-7.27 0-14.38 3.02-19.53 8.7-2.06 2.26-3.7 4.86-4.87 7.72l-26.1 63.45c-.43 1.05-.24 2.24.5 3.1.58.67 1.41 1.04 2.27 1.04.24 0 .48-.03.72-.09l26.9-6.59c.93-.23 1.7-.89 2.06-1.77l8.68-21.1c.55-1.33 1.85-2.18 3.25-2.18.18 0 .35.01.53.04l.12.02c1.83.39 3.66.58 5.47.58 11.48 0 22.07-7.6 25.45-19.03 3.66-12.36-2.4-25.83-14.09-31.34-3.66-1.72-7.53-2.56-11.36-2.56zm-46.05 79.57 25.35-61.63c1-2.43 2.39-4.63 4.14-6.55 4.37-4.82 10.4-7.38 16.57-7.38 3.25 0 6.54.71 9.64 2.17 9.92 4.67 15.06 16.1 11.96 26.58-2.87 9.71-11.87 16.16-21.61 16.16-1.48 0-2.99-.15-4.48-.46l-.26-.06c-.46-.09-.91-.13-1.37-.13-2.99 0-5.79 1.81-6.96 4.66l-8.48 20.63-24.49 6z" fill="#fff"/><path d="m256.08 93.59c-.1 0-.21 0-.32-.02l-25.46-3.29c-.78-.1-1.45-.55-1.84-1.22-.39-.68-.45-1.48-.15-2.2l1.25-3.04c4.88-11.83 18.6-45.1 23.69-57.47 6.55-15.91 21.49-16.09 22.13-16.09h28.49l.02 3.02c-2.52.18-13.72 1.7-18.87 14.21l-26.62 64.56c-.39.94-1.29 1.55-2.31 1.55zm19.3-80.34c-.55 0-13.6.25-19.35 14.23-5.37 13.05-20.34 49.35-24.41 59.21l-.25.6.61.17 23.79 3.08 26.47-64.21c2.17-5.26 5.51-9.35 9.93-12.17l1.45-.92h-18.24z"/><path d="m303.37 10.75v2.07c-3.29.34-13.83 2.37-18.82 14.47l-26.62 64.56c-.31.75-1.04 1.24-1.85 1.24-.08 0-.17 0-.25-.02l-25.46-3.29c-.62-.08-1.16-.44-1.47-.98s-.36-1.18-.12-1.76l1.27-3.08c4.89-11.86 18.59-45.07 23.67-57.43 6.42-15.6 21.05-15.78 21.67-15.78h27.99m-47.29 80.34.29-.71 26.32-63.85c2.13-5.16 5.41-9.18 9.74-11.93l2.9-1.84h-19.96c-.57 0-13.94.26-19.81 14.54-5.37 13.05-20.35 49.37-24.41 59.22l-.03.08-.5 1.21 1.29.17 23.41 3.03.76.1m48.28-81.34h-28.98c-.65 0-15.92.19-22.59 16.4-5.64 13.71-21.9 53.11-24.94 60.51-.36.87-.29 1.83.18 2.65.47.81 1.28 1.35 2.21 1.47l25.46 3.29c.13.02.26.02.38.02 1.2 0 2.31-.72 2.77-1.86l26.62-64.56c5.58-13.54 18.38-13.91 18.91-13.92zm-12.46 4c-3.78 2.4-7.59 6.25-10.13 12.4l-26.32 63.85-23.41-3.03c4.01-9.73 19.06-46.21 24.45-59.3 5.62-13.66 18.32-13.92 18.9-13.92z" fill="#fff"/><text style="font-family:ExoSoft-Bold, &apos;Exo Soft&apos;;font-size:60;font-weight:700;letter-spacing:.11em;stroke:#fff;stroke-miterlimit:10" transform="translate(491.44 51.2)"><tspan x="0" y="0">™</tspan></text></svg>