<svg fill="none" height="100" viewBox="0 0 308 100" width="308" xmlns="http://www.w3.org/2000/svg" xmlns:xlink="http://www.w3.org/1999/xlink"><clipPath id="a"><path d="m0 .38501h308v99h-308z"/></clipPath><g clip-path="url(#a)" fill="#f8f8ff"><path d="m0 .469421v98.915579h31.2091v-35.6969h21.6382l8.4038-21.6858h-30.042v-20.0159h36.6171l7.9887-21.516979z"/><path d="m85.3015.469421-.0842 98.915579h30.8777v-98.915579z"/><path d="m237.016 67.1065 11.899-41.2013 12.314 41.2013h-24.219zm28.375-66.637079h-31.955l-35.45 98.915579h29.796l3.826-13.2635h34.704l3.994 13.2635h30.71z"/><path d="m137.312.469421v98.915579h31.21v-35.6969h21.638l8.488-21.6858h-30.126v-20.0159h36.617l8.073-21.516979z"/><path d="m294.435 10.9777h2.166c.33 0 .667 0 .998-.0844.331 0 .584-.1688.83-.2472.247-.1688.415-.3315.584-.5848.168-.25317.246-.58476.246-1.00075s-.084-.66921-.246-.91639c-.169-.24718-.331-.41599-.584-.5004-.246-.1688-.583-.25321-.83-.25321-.331 0-.583-.0844-.914-.0844h-2.166v3.67155zm-2.497-5.58873h4.909c1.582 0 2.827.24718 3.579.83198.831.5848 1.252 1.58559 1.252 3.00238 0 1.08517-.253 1.91717-.915 2.50197-.583.5848-1.413.9164-2.496 1.0008l3.495 5.7576h-2.497l-3.41-5.6732h-1.414v5.6732h-2.497v-13.09473zm4.494 15.92823c1.251 0 2.328-.2472 3.411-.6692 1.083-.5004 1.997-1.0852 2.749-1.9172.752-.8319 1.414-1.8327 1.913-2.9179.415-1.1696.668-2.4176.668-3.756s-.247-2.58639-.668-3.75599c-.499-1.1696-1.083-2.08599-1.913-2.91797s-1.666-1.50119-2.749-1.91718-2.166-.6692-3.411-.6692-2.328.24718-3.411.6692c-1.083.5004-1.997 1.0852-2.749 1.91718s-1.414 1.83277-1.829 2.91797c-.415 1.1696-.667 2.41759-.667 3.75599s.246 2.5864.667 3.756c.5 1.1696 1.083 2.086 1.829 2.9179.83.832 1.751 1.5012 2.749 1.9172.999.416 2.166.6692 3.411.6692zm0 2.2548c-1.582 0-3.08-.3316-4.494-.9164-1.413-.5848-2.58-1.4167-3.663-2.5019-.999-1.0008-1.829-2.2548-2.412-3.6716-.584-1.4168-.915-2.918-.915-4.5036s.331-3.08676.915-4.50354c.583-1.41679 1.413-2.58639 2.412-3.67158 1.083-1.0852 2.25-1.83278 3.663-2.50198 1.414-.669207 2.912-.91639 4.494-.91639s3.08.253212 4.494.91639c1.413.5848 2.58 1.41678 3.663 2.50198.999 1.08519 1.913 2.25479 2.497 3.67158.583 1.41678.914 2.91794.914 4.50354s-.331 3.0868-.914 4.5036c-.584 1.4168-1.414 2.5864-2.497 3.6716-.998 1.0852-2.25 1.9171-3.663 2.5019-1.414.5848-2.912.9164-4.494.9164z"/></g></svg>