<svg fill="none" height="190" viewBox="0 0 135 190" width="135" xmlns="http://www.w3.org/2000/svg" xmlns:xlink="http://www.w3.org/1999/xlink"><clipPath id="a"><path d="m0 0h134.8v189.77h-134.8z"/></clipPath><g clip-path="url(#a)" fill="#f8f8ff"><path d="m18.9999 29.23c-.14.23-.14.55.05.78l.28.28 23.68 13.76.05.05c.23.14.55.14.83-.05.09-.05.14-.14.18-.18.05-.05.05-.09.05-.09 2.2-3.85 5.23-7.34 9.08-10.05 3.9-2.75 8.17-4.45 12.57-5.23h.09c.09 0 .18-.05.28-.14.23-.18.37-.46.32-.73v-.05l-5.02-26.89v-.05c0-.09-.05-.23-.14-.32-.18-.23-.46-.32-.69-.32h-.05c-8.35 1.51-16.66 4.86-24.04 10.09-7.43 5.14-13.31 11.75-17.53 19.13"/><path d="m5.51006 81.21c.09.23.37.41.64.46.14 0 .28 0 .37-.05l25.56004-9.82h.05c.28-.09.46-.37.46-.64 0-.09 0-.18-.05-.28 0-.05-.05-.09-.05-.14-1.65-4.13-2.43-8.67-2.16-13.4.28-4.73 1.65-9.18 3.76-13.08 0-.05.05-.05.05-.09.05-.09.05-.18.09-.28 0-.32-.14-.6-.37-.73l-.05-.05-24.13004-12.94h-.05c-.09-.05-.23-.09-.32-.09-.28 0-.55.14-.69.37 0 0 0 .05-.05.05-4.04 7.48-6.65 16.01-7.16 25.05-.550004 9.04.96 17.76 4.08 25.65"/><path d="m37.9401 123.93c.28.05.55 0 .73-.23.09-.09.14-.23.18-.32l8.12-26.15v-.05c.09-.28 0-.6-.23-.78-.09-.05-.14-.09-.23-.14-.05 0-.09-.05-.14-.05-4.27-1.28-8.3-3.44-11.84-6.61-3.53-3.17-6.15-6.97-7.89-11.06 0 0-.0167-.03-.05-.09-.05-.09-.09-.18-.18-.23-.23-.18-.55-.23-.78-.14h-.05l-25.080041 10.89h-.05c-.09.05-.18.09-.28.18-.18000007.23-.2300001.5-.1400001.73 0 0 0 .05.05.05h.01c3.3500011 7.8 8.4400011 15.14 15.1900411 21.2 6.79 6.1 14.54 10.37 22.67 12.8"/><path d="m91.3098 125.21c.23-.18.32-.46.32-.73 0-.14-.05-.23-.14-.37l-15.23-22.71-.05-.05c-.18-.23-.46-.37-.73-.32-.09 0-.18.05-.28.09-.05 0-.09.05-.09.09-3.67 2.52-7.89 4.31-12.57 5.05-4.68.78-9.31.46-13.58-.78 0 0-.03-.017-.09-.05-.09 0-.18-.05-.28 0-.32.05-.55.28-.6.55v.05l-7.3 26.38v.05c-.05.09-.05.23 0 .32.05.28.23.5.5.6h.05c8.17 2.29 17.07 2.94 26.02 1.47 8.9-1.47 17.02-4.82 24.04-9.64"/><path d="m126.08 84.47c0-.28-.14-.55-.37-.69-.09-.05-.23-.09-.37-.09l-27.2998-2.11h-.05c-.28 0-.55.14-.69.41-.05.09-.09.18-.09.28v.14c-.28 4.45-1.51 8.86-3.81 12.98-2.29 4.18-5.41 7.57-9.04 10.14-.05 0-.05.05-.09.05-.09.05-.14.14-.18.23-.14.28-.14.6.05.83l.05.05 16.1998 22.07.05.05c.05.09.14.18.28.23.28.14.55.09.78-.05l.05-.05c6.88-5 12.89-11.61 17.3-19.5 4.22-7.98 6.65-16.47 7.25-24.96"/><path d="m115.76 31.8c-.23-.18-.5-.23-.78-.14-.14.05-.23.14-.32.23l-18.8101 19.87-.05.05c-.18.23-.23.5-.14.78.05.09.09.18.14.23 0 0 .03.03.09.09 3.26 3.03 5.9201 6.79 7.7101 11.15 1.79 4.4 2.48 8.99 2.2 13.44v.09c0 .09 0 .18.05.28.14.28.37.46.64.46h.05l27.35 1.33h.05c.09 0 .23 0 .32-.05.28-.09.41-.37.46-.6v-.05c.46-8.49-.87-17.3-4.27-25.69-3.4-8.44-8.44-15.69-14.68-21.47"/><path d="m67.91 7.34c-.28.05-.5.23-.6.5-.05.14-.05.28 0 .37l3.99 27.07v.05c.05.28.28.5.55.6.09.05.18.05.28.05h.14c4.4-.69 8.99-.5 13.54.83 4.54 1.33 8.58 3.62 11.93 6.56 0 0 .05.05.09.05.09.05.18.09.28.14.28.09.6 0 .78-.23l.05-.05 17.89-20.69.05-.05c.09-.09.14-.18.14-.28.09-.28 0-.55-.18-.73l-.05-.05c-6.38-5.6-14.18-10-22.85-12.48-8.81-2.52-17.62-2.98-26.02-1.65"/><path d="m66.21 46.02c-12.48 0-22.67 10.14-22.67 22.67s10.14 22.62 22.67 22.62 22.62-10.14 22.62-22.62c.05-12.53-10.09-22.67-22.62-22.67zm16.47 35.42c.37-.92.46-1.97.55-2.84-.46.41-.96.83-1.47 1.24-1.56 1.15-3.26 1.88-4.86 2.2l-4.36-4.77-.05.05 3.17 5.6c-.83 1.47-2.06 2.84-3.62 3.99-.55.37-1.06.73-1.61 1.01.83.14 1.88.37 2.84.32-2.2.78-4.54 1.19-7.02 1.19s-4.82-.41-7.02-1.19c.96.05 2.02-.18 2.84-.32-.55-.28-1.1-.64-1.61-1.01-1.56-1.15-2.8-2.52-3.62-3.99l3.17-5.64-.05-.05-4.4 4.77c-1.61-.32-3.3-1.06-4.86-2.2-.55-.37-1.01-.78-1.47-1.24.09.83.23 1.93.55 2.84-2.75-3.53-4.4-7.94-4.4-12.76v-.69c.23.96.83 1.93 1.24 2.71.09-.6.28-1.24.46-1.88.6-1.88 1.56-3.49 2.71-4.73l6.29 1.28.05-.09-5.87-2.66c-.18-1.65 0-3.44.6-5.28.18-.64.46-1.24.73-1.79-.78.37-1.88.83-2.66 1.51 2.71-4.08 6.84-7.16 11.7-8.49-.92.55-1.7 1.42-2.34 2.06.6-.09 1.24-.14 1.93-.14 1.93 0 3.76.41 5.28 1.1l.73 6.33h.09l.73-6.33c1.51-.69 3.3-1.1 5.28-1.1.64 0 1.28.05 1.93.14-.64-.64-1.42-1.56-2.29-2.06 4.82 1.38 8.95 4.4 11.7 8.49-.78-.69-1.84-1.15-2.66-1.51.28.55.5 1.15.73 1.79.6 1.84.78 3.67.6 5.28l-5.83 2.66.05.09 6.24-1.28c1.15 1.24 2.06 2.84 2.71 4.73.18.64.37 1.24.46 1.88.41-.78.96-1.7 1.24-2.71v.64c-.14 4.86-1.74 9.31-4.5 12.85"/><path d="m57.0801 65.7 3.48 10.74h11.34l3.48-10.74-9.13-6.65z"/><path d="m.5 150.81v30.38h17.44v-6.88h-9.54v-23.5z"/><path d="m32.48 163.2c-3.53 0-5.78 2.62-5.78 5.83 0 3.4 2.11 6.15 5.51 6.15s6.01-2.43 6.01-5.96-2.52-6.01-5.74-6.01m-13.21 5.92c0-6.79 5-12.76 11.75-12.76 2.94 0 4.82 1.01 6.97 2.98v-2.52h7.25v24.36h-7.39v-2.39s-2.66 2.98-7.25 2.98c-6.74 0-11.33-4.86-11.33-12.66"/><path d="m67.0301 181.19h-17.43v-30.38h7.89v23.5h9.54z"/><path d="m77.6301 181.19h-7.34v-24.36h7.34zm-8.03-30.56c0-2.48 1.97-4.5 4.4-4.5s4.45 1.93 4.45 4.4-2.02 4.54-4.54 4.54c-2.39 0-4.31-1.93-4.31-4.45"/><path d="m93.09 162.65c-3.44 0-5.14 2.8-5.14 5.83s1.84 5.69 5.09 5.69c3.67 0 5.64-2.94 5.64-5.69 0-3.21-1.84-5.83-5.6-5.83m-12.3 5.87c0-6.61 4.18-12.16 10.55-12.16 3.07 0 5.18 1.01 7.25 3.21v-2.75h7.02v21.47c0 7.52-5.64 11.47-12.43 11.47-5.96 0-11.15-3.03-11.93-8.49h8.26c1.01 1.65 2.06 1.97 3.85 1.97 2.57 0 4.91-1.19 4.91-3.85 0-.64.05-1.19-.05-1.84-1.42 1.28-4.08 2.8-6.93 2.8-6.24.05-10.51-5.18-10.51-11.84"/><path d="m122.05 163.2c-3.53 0-5.78 2.62-5.78 5.83 0 3.4 2.11 6.15 5.51 6.15s6.01-2.43 6.01-5.96-2.52-6.01-5.74-6.01m-13.21 5.92c0-6.79 5-12.76 11.75-12.76 2.94 0 4.82 1.01 6.97 2.98v-2.52h7.25v24.36h-7.39v-2.39s-2.66 2.98-7.25 2.98c-6.74 0-11.33-4.86-11.33-12.66"/></g></svg>