<svg fill="none" height="161" viewBox="0 0 151 161" width="151" xmlns="http://www.w3.org/2000/svg" xmlns:xlink="http://www.w3.org/1999/xlink"><clipPath id="a"><path d="m.799805.88501h150v160h-150z"/></clipPath><g clip-path="url(#a)" fill="#f8f8ff"><path d="m31.344 107.855-1.2853-2.855.8071-.807 2.9032 2.902-.5223.522-2.235-2.282 1.3803 3.14-.3798.38-3.1406-1.38 2.2825 2.282-.5223.522-2.9031-2.903.8072-.806zm-3.8052.569-.9056.906 2.425 2.424-.5698.57-2.4249-2.425-.9056.905-.4748-.474 2.33-2.33.5223.428z"/><path d="m58.3638 61.1478 1.8077 5.6116-4.7583-3.4721-4.8024 3.4721 1.8551-5.6116-4.8057-3.4721h5.8978l1.8552-5.615 1.8076 5.615h5.9488z"/><path d="m30.8179 61.1478 4.8058-3.4721h-5.9454l-1.8076-5.615-1.8077 5.615h-5.9487l4.8057 3.4721-1.8551 5.6116 4.8058-3.4721 4.8023 3.4721z"/><path d="m43.4752 75.9854-1.8551-5.6116-1.8111 5.6116h-5.8979l4.7583 3.4721-1.8076 5.6625 4.7583-3.4721 4.8023 3.4721-1.8076-5.6625 4.7583-3.4721z"/><path d="m25.585 39.1252-5.423-12.3658h-.1899v16.5059c0 .2373-.1899.4272-.4273.4272h-4.8533c-.2374 0-.4273-.1899-.4273-.4272v-28.3971c0-.2373.1899-.4272.4273-.4272h5.1381c.3324 0 .5698.1424.6648.4272l7.4206 16.6958h.1899l7.2782-16.6958c.1425-.2848.3324-.4272.7123-.4272h5.0431c.2374 0 .4274.1899.4274.4272v28.3937c0 .2373-.19.4272-.4274.4272h-4.8532c-.2374 0-.4274-.1899-.4274-.4272v-16.5059h-.1899l-5.423 12.3658c-.1899.3798-.4273.5697-.8072.5697h-2.9506c-.4748 0-.7597-.1899-.9055-.5697"/><path d="m45.8527 43.6925h19.0772c.2374 0 .4274-.1899.4274-.4272v-4.8047c0-.2373-.19-.4272-.4274-.4272h-12.8911c-.1899 0-.2374-.0949-.2374-.2373v-22.9279c0-.2373-.19-.4272-.4274-.4272h-5.518c-.2374 0-.4273.1899-.4273.4272v28.3937c0 .2373.1899.4272.4273.4272"/><path d="m81.2467 26.0948-1.5703-.2373c-3.3779-.4747-4.5683-1.5699-4.5683-3.2348 0-1.8547 1.3328-3.1872 3.9002-3.1872 2.4249 0 4.5684.7595 6.8034 2.2344.2374.1425.4273.095.6172-.1424l2.6183-3.8993c.2374-.2848.1899-.4747-.095-.6645-2.4724-1.9022-6.0911-3.0449-9.9439-3.0449-6.3286 0-10.3712 3.567-10.3712 8.9413 0 5.3742 3.3304 7.9444 9.2758 8.7988l1.5702.1899c3.4729.4747 4.5209 1.5699 4.5209 3.2822 0 2.0446-1.7127 3.4721-4.7583 3.4721s-5.7079-1.475-7.658-2.9974c-.19-.1899-.4748-.1899-.6648.0475l-3.283 3.7569c-.1899.2373-.1424.5696.0475.712 2.2825 2.187 6.7084 3.9942 11.2768 3.9942 7.5631 0 11.5142-3.8993 11.5142-9.226 0-5.2319-3.188-7.9919-9.2283-8.7989"/><path d="m.799805.88501v60.35769c0 11.464 1.855155 22.7821 5.565475 33.5306 3.56788 10.4157 8.75352 20.1677 15.41442 28.9667.19.285.4274.57.6173.807l-19.69455 19.69 4.75829 4.757 19.21976-19.215c5.4705 6.232 11.6566 11.749 18.5075 16.506 9.0858 6.327 19.0773 11.128 29.6384 14.315l.9531.285.953-.285c10.5611-3.14 20.5526-7.944 29.6385-14.315 8.943-6.232 16.842-13.841 23.452-22.545 6.661-8.799 11.847-18.551 15.415-28.9667 3.663-10.7485 5.565-22.07 5.565-33.5306v-60.35769zm26.307995 118.80999c-6.2336-8.229-11.0835-17.36-14.4139-27.0646-3.42548-10.084-5.18568-20.5951-5.18568-31.3436v-53.64753h131.87578l-112.1812 112.15073zm21.9329 21.07c-6.471-4.52-12.3688-9.799-17.6019-15.743l112.6052-112.5781v48.7988c0 10.7485-1.76 21.3071-5.186 31.3436-3.33 9.7517-8.183 18.8357-14.414 27.0647-6.186 8.134-13.559 15.268-21.933 21.07-8.2308 5.754-17.2217 10.131-26.7349 13.081-9.5132-2.903-18.5075-7.277-26.7354-13.031"/></g></svg>