<svg fill="none" height="400" viewBox="0 0 400 400" width="400" xmlns="http://www.w3.org/2000/svg"><g stroke="#bfd0fc" stroke-miterlimit="10"><path d="m200 397.531c109.093 0 197.531-88.438 197.531-197.531 0-109.0933-88.438-197.53085-197.531-197.53085-109.0932 0-197.53076 88.43755-197.53076 197.53085 0 109.093 88.43756 197.531 197.53076 197.531z"/><path d="m269.975 61.3827c5.455 0 9.877-4.4219 9.877-9.8765 0-5.4547-4.422-9.8766-9.877-9.8766-5.454 0-9.876 4.4219-9.876 9.8766 0 5.4546 4.422 9.8765 9.876 9.8765z"/><path d="m50.9137 278.617c5.4546 0 9.8765-4.422 9.8765-9.876 0-5.455-4.4219-9.877-9.8765-9.877-5.4547 0-9.8766 4.422-9.8766 9.877 0 5.454 4.4219 9.876 9.8766 9.876z"/><path d="m358.42 253.037c5.454 0 9.876-4.422 9.876-9.876 0-5.455-4.422-9.877-9.876-9.877-5.455 0-9.877 4.422-9.877 9.877 0 5.454 4.422 9.876 9.877 9.876z"/></g></svg>