<svg fill="none" height="400" viewBox="0 0 400 400" width="400" xmlns="http://www.w3.org/2000/svg"><g stroke="#bfd0fc" stroke-miterlimit="10"><path d="m200 397.531c109.093 0 197.531-88.438 197.531-197.531 0-109.0933-88.438-197.53088-197.531-197.53088-109.0933 0-197.53088 88.43758-197.53088 197.53088 0 109.093 88.43758 197.531 197.53088 197.531z"/><path d="m367.506 209.877c-5.432 0-9.876-4.445-9.876-9.877 0-86.914-70.716-157.6296-157.63-157.6296-5.432 0-9.876-4.4444-9.876-9.8765s4.444-9.8766 9.876-9.8766c97.827 0 177.383 79.6047 177.383 177.3827 0 5.432-4.445 9.877-9.877 9.877z"/></g></svg>